HIERARCHY
ROOT Hips
{
	OFFSET 0.000000 0.000000 0.000000 
	CHANNELS 6 Xposition Yposition Zposition Zrotation Yrotation Xrotation
	JOINT LeftUpLeg
	{
		OFFSET 1.363060 -1.794630 0.839290 
		CHANNELS 3 Zrotation Yrotation Xrotation
		JOINT LeftLeg
		{
			OFFSET 2.448110 -6.726130 0.000000 
			CHANNELS 3 Zrotation Yrotation Xrotation
			JOINT LeftFoot
			{
				OFFSET 2.562200 -7.039590 0.000000 
				CHANNELS 3 Zrotation Yrotation Xrotation
				JOINT LeftToeBase
				{
					OFFSET 0.157640 -0.433110 2.322550 
					CHANNELS 3 Zrotation Yrotation Xrotation
					End Site
					{
						OFFSET 0.000000 0.000000 0.000000 
					}
				}
			}
		}
	}
	JOINT RightUpLeg
	{
		OFFSET -1.305520 -1.794630 0.839290 
		CHANNELS 3 Zrotation Yrotation Xrotation
		JOINT RightLeg
		{
			OFFSET -2.542530 -6.985550 0.000000 
			CHANNELS 3 Zrotation Yrotation Xrotation
			JOINT RightFoot
			{
				OFFSET -2.568260 -7.056230 0.000000 
				CHANNELS 3 Zrotation Yrotation Xrotation
				JOINT RightToeBase
				{
					OFFSET -0.164730 -0.452590 2.363150 
					CHANNELS 3 Zrotation Yrotation Xrotation
					End Site
					{
						OFFSET 0.000000 0.000000 0.000000 
					}
				}
			}
		}
	}
	JOINT Spine
	{
		OFFSET 0.028270 2.035590 -0.193380 
		CHANNELS 3 Zrotation Yrotation Xrotation
		JOINT Spine1
		{
			OFFSET 0.056720 2.048850 -0.042750 
			CHANNELS 3 Zrotation Yrotation Xrotation
			JOINT Neck1
			{
				OFFSET -0.054170 1.746240 0.172020 
				CHANNELS 3 Zrotation Yrotation Xrotation
				JOINT Head
				{
					OFFSET 0.104070 1.761360 -0.123970 
					CHANNELS 3 Zrotation Yrotation Xrotation
					End Site
					{
						OFFSET 0.000000 0.000000 0.000000 
					}
				}
			}
			JOINT LeftArm
			{
				OFFSET 3.362410 1.200890 -0.311210 
				CHANNELS 3 Zrotation Yrotation Xrotation
				JOINT LeftForeArm
				{
					OFFSET 4.983000 -0.000000 -0.000000 
					CHANNELS 3 Zrotation Yrotation Xrotation
					JOINT LeftHand
					{
						OFFSET 3.483560 -0.000000 -0.000000 
						CHANNELS 3 Zrotation Yrotation Xrotation
						JOINT LeftHandIndex1
						{
							OFFSET 0.715260 -0.000000 -0.000000 
							CHANNELS 3 Zrotation Yrotation Xrotation
							End Site
							{
								OFFSET 0.000000 0.000000 0.000000 
							}
						}
					}
				}
			}
			JOINT RightArm
			{
				OFFSET -3.136600 1.374050 -0.404650 
				CHANNELS 3 Zrotation Yrotation Xrotation
				JOINT RightForeArm
				{
					OFFSET -5.241900 -0.000000 -0.000000 
					CHANNELS 3 Zrotation Yrotation Xrotation
					JOINT RightHand
					{
						OFFSET -3.444170 -0.000000 -0.000000 
						CHANNELS 3 Zrotation Yrotation Xrotation
						JOINT RightHandIndex1
						{
							OFFSET -0.622530 -0.000000 -0.000000 
							CHANNELS 3 Zrotation Yrotation Xrotation
							End Site
							{
								OFFSET 0.000000 0.000000 0.000000 
							}
						}
					}
				}
			}
		}
	}
}
MOTION
Frames: 16
Frame Time: 0.041667
-31.446604 18.041361 -2.333086 -62.615665 85.603145 -60.530547 -2.377534 -3.874834 -13.004493 -0.515465 8.704975 24.166269 -1.112475 7.470818 8.211929 0.007000 -0.539700 -1.483000 12.674075 8.381985 -9.178799 1.919896 -7.057253 19.635817 4.204853 -14.190246 0.716450 -0.381700 3.967900 -10.986400 4.071725 -0.571587 5.349634 1.478290 0.330340 -1.450333 3.498340 3.644268 -6.748475 -0.414900 1.422800 -1.778700 -82.369475 13.032522 22.417555 29.249317 -39.042612 -13.238140 0.647524 -1.563377 -1.352618 -7.125000 0.000000 0.000000 69.750780 -13.493859 35.331665 -35.497498 41.141745 -14.143795 0.441065 0.148220 3.200611 7.125000 0.000000 0.000000 
-31.446091 18.037874 -2.335035 -61.215156 85.636525 -59.130142 -2.449901 -4.407867 -12.755636 -0.518763 8.712169 24.145847 -1.437158 8.098252 7.808613 0.006200 -0.508400 -1.397100 12.574650 8.371362 -9.273594 1.896944 -7.107380 19.778811 4.142454 -14.015421 0.705678 -0.382400 3.971100 -10.995500 4.049478 -0.539339 5.366377 1.517538 0.343682 -1.411297 3.413339 3.603707 -6.788246 -0.453600 1.401500 -1.798200 -82.350883 12.926859 22.457825 29.231818 -39.020953 -13.220972 0.646439 -1.563365 -1.310556 -7.125000 0.000000 0.000000 69.767077 -13.443148 35.301480 -35.513330 41.151201 -14.155040 0.442706 0.146448 3.230072 7.125000 0.000000 0.000000 
-31.445680 18.034284 -2.335548 -60.845197 85.579484 -58.759712 -2.433872 -4.300671 -12.810633 -0.510269 8.711224 24.138952 -1.477490 8.190861 7.846546 0.010200 -0.652100 -1.792000 12.600365 8.384216 -9.268274 1.886352 -7.111069 19.747309 4.286008 -14.417491 1.020944 -0.581200 4.881400 -13.570700 4.061814 -0.511842 5.382608 1.530643 0.355851 -1.381645 3.344129 3.576443 -6.827424 -0.486900 1.386600 -1.816600 -82.303589 12.834138 22.544434 29.221858 -39.003828 -13.205151 0.641290 -1.569237 -1.314293 -7.125000 0.000000 0.000000 69.795013 -13.421959 35.267566 -35.552984 41.177261 -14.181112 0.441267 0.143595 3.223602 7.125000 0.000000 0.000000 
-31.443424 18.040746 -2.336778 -60.174723 85.565745 -58.088938 -2.465352 -3.751227 -12.990967 -0.514538 8.700601 24.175767 -1.125034 7.468727 7.984079 0.003700 -0.391500 -1.075700 12.589784 8.380087 -9.275931 1.886617 -7.117158 19.764495 4.245899 -14.312874 1.050141 -0.589700 4.916700 -13.671100 4.066062 -0.493294 5.405002 1.553243 0.362761 -1.344185 3.371577 3.594294 -6.848341 -0.478400 1.394200 -1.825900 -82.272278 12.728304 22.606468 29.188311 -38.968282 -13.173324 0.636932 -1.572830 -1.284539 -7.125000 0.000000 0.000000 69.818038 -13.371582 35.212440 -35.561668 41.181191 -14.186390 0.439018 0.145882 3.256216 7.125000 0.000000 0.000000 
-31.441885 18.038694 -2.336778 -59.883734 85.528719 -57.795920 -2.436262 -4.061424 -12.852083 -0.508750 8.706219 24.161128 -1.331044 7.889552 7.891609 0.005600 -0.485400 -1.333700 12.607721 8.379248 -9.276499 1.892953 -7.111315 19.752924 4.211457 -14.222107 1.039305 -0.537000 4.695300 -13.041500 4.069253 -0.478014 5.417500 1.566292 0.369261 -1.317442 3.313712 3.558980 -6.842679 -0.507400 1.376300 -1.827100 -82.222927 12.682494 22.685281 29.231913 -39.002313 -13.205775 0.640142 -1.568349 -1.265524 -7.125000 0.000000 0.000000 69.842780 -13.358465 35.208356 -35.599718 41.207014 -14.210884 0.437910 0.145527 3.242619 7.125000 0.000000 0.000000 
-31.440449 18.039002 -2.337291 -59.438290 85.500276 -57.346900 -2.436801 -4.018079 -12.856962 -0.505230 8.707666 24.170432 -1.326976 7.879742 7.877279 0.005300 -0.470800 -1.293700 12.609329 8.377143 -9.272880 1.899984 -7.100697 19.720826 4.195087 -14.182315 1.082369 -0.533500 4.680500 -12.999500 4.071414 -0.460777 5.432440 1.580884 0.376139 -1.289641 3.282179 3.541005 -6.853457 -0.524600 1.366600 -1.833500 -82.175627 12.609679 22.764297 29.247454 -39.010629 -13.214278 0.640314 -1.566708 -1.259838 -7.125000 0.000000 0.000000 69.865535 -13.334651 35.192054 -35.633870 41.229664 -14.233035 0.436714 0.145396 3.242065 7.125000 0.000000 0.000000 
-31.439013 18.039515 -2.337702 -59.084420 85.469335 -56.990409 -2.432079 -3.952329 -12.873248 -0.501585 8.708394 24.179688 -1.308583 7.842589 7.882729 0.005200 -0.464400 -1.276000 12.620568 8.375805 -9.277564 1.902708 -7.100267 19.720402 4.174151 -14.127985 1.086341 -0.524500 4.641300 -12.888200 4.073835 -0.446460 5.446145 1.591413 0.381967 -1.265320 3.257545 3.524066 -6.860895 -0.538900 1.357400 -1.838200 -82.121847 12.541943 22.850586 29.273513 -39.028139 -13.231186 0.641075 -1.564967 -1.267559 -7.125000 0.000000 0.000000 69.888505 -13.317361 35.183290 -35.673774 41.256466 -14.258909 0.435559 0.145245 3.237889 7.125000 0.000000 0.000000 
-31.437680 18.040130 -2.338112 -58.787512 85.439303 -56.689146 -2.424636 -3.905511 -12.883131 -0.498399 8.708789 24.186259 -1.297570 7.819876 7.880145 0.005200 -0.464200 -1.275600 12.633350 8.372485 -9.279291 1.908293 -7.095277 19.709594 4.144319 -14.048948 1.072460 -0.499800 4.532500 -12.579700 4.074728 -0.434829 5.457683 1.597653 0.386648 -1.243989 3.241708 3.507345 -6.870371 -0.549400 1.348300 -1.843600 -82.062022 12.479969 22.941657 29.310751 -39.055361 -13.257194 0.642510 -1.563550 -1.289082 -7.125000 0.000000 0.000000 69.911388 -13.306921 35.183142 -35.719973 41.287920 -14.289054 0.434605 0.145198 3.228640 7.125000 0.000000 0.000000 
-31.436346 18.040335 -2.338214 -58.532162 85.409784 -56.428579 -2.414871 -3.896082 -12.881071 -0.494607 8.710392 24.192038 -1.309610 7.843821 7.861938 0.005600 -0.484100 -1.330300 12.646896 8.369549 -9.281563 1.913663 -7.090503 19.699680 4.116101 -13.974045 1.053940 -0.476200 4.425400 -12.276800 4.073316 -0.425486 5.466105 1.599164 0.390369 -1.228435 3.231291 3.489650 -6.881781 -0.557500 1.338600 -1.849800 -81.994727 12.426336 23.039200 29.358216 -39.091310 -13.291044 0.644097 -1.562791 -1.321244 -7.125000 0.000000 0.000000 69.934643 -13.305617 35.192763 -35.771731 41.323485 -14.322902 0.433899 0.144817 3.216991 7.125000 0.000000 0.000000 
-31.435116 18.040643 -2.338214 -58.328965 85.382681 -56.219206 -2.404292 -3.890269 -12.880678 -0.490758 8.712438 24.198262 -1.323042 7.870258 7.841498 0.006200 -0.507800 -1.395400 12.660873 8.365309 -9.286173 1.917672 -7.087137 19.692580 4.094807 -13.917812 1.043422 -0.463400 4.366400 -12.109700 4.067562 -0.420722 5.467932 1.592525 0.392280 -1.224152 3.229177 3.473792 -6.894568 -0.562300 1.329700 -1.857000 -81.919259 12.386871 23.139092 29.414509 -39.135285 -13.331825 0.645724 -1.562366 -1.364334 -7.125000 0.000000 0.000000 69.961555 -13.316618 35.213866 -35.828708 41.362938 -14.359922 0.433366 0.144304 3.200669 7.125000 0.000000 0.000000 
-31.433987 18.040643 -2.338112 -58.139763 85.356519 -56.022602 -2.391835 -3.923587 -12.865531 -0.486634 8.715077 24.202589 -1.359505 7.943178 7.807193 0.007000 -0.539600 -1.482900 12.674038 8.363226 -9.292763 1.920865 -7.085402 19.689535 4.075073 -13.865824 1.035875 -0.452000 4.313200 -11.959600 4.053995 -0.422456 5.456791 1.571813 0.391272 -1.244451 3.243589 3.463253 -6.896901 -0.561000 1.323500 -1.861000 -81.835448 12.373893 23.231832 29.481281 -39.189098 -13.381489 0.647451 -1.562958 -1.414500 -7.125000 0.000000 0.000000 69.993889 -13.346924 35.255851 -35.891366 41.406790 -14.400282 0.433210 0.143758 3.181208 7.125000 0.000000 0.000000 
-31.432756 18.040438 -2.337804 -57.976183 85.333464 -55.850631 -2.378698 -3.991973 -12.837647 -0.482467 8.718231 24.204311 -1.417697 8.060257 7.763280 0.008100 -0.579900 -1.593400 12.685506 8.363856 -9.300696 1.922450 -7.085212 19.688703 4.065479 -13.841642 1.045869 -0.451700 4.311600 -11.954900 4.034343 -0.429336 5.434943 1.542478 0.388021 -1.283588 3.267640 3.455469 -6.893332 -0.556100 1.318600 -1.863800 -81.745029 12.384151 23.319034 29.555650 -39.250256 -13.437519 0.649123 -1.564440 -1.464327 -7.125000 0.000000 0.000000 70.031890 -13.393227 35.310595 -35.954741 41.451732 -14.440722 0.433264 0.143101 3.160368 7.125000 0.000000 0.000000 
-31.431628 18.040335 -2.337189 -57.828932 85.315566 -55.693296 -2.367471 -4.058544 -12.812324 -0.478934 8.720852 24.204602 -1.473584 8.172614 7.721761 0.009000 -0.614000 -1.687400 12.694530 8.367703 -9.310382 1.923790 -7.086302 19.692707 4.051733 -13.804906 1.034770 -0.442900 4.270100 -11.837700 4.008744 -0.441586 5.402742 1.505432 0.382222 -1.342153 3.304485 3.450796 -6.874051 -0.546600 1.315500 -1.861000 -81.648877 12.418007 23.399824 29.637692 -39.318838 -13.500369 0.650930 -1.566151 -1.513170 -7.125000 0.000000 0.000000 70.074704 -13.455460 35.378075 -36.021153 41.499225 -14.482825 0.433487 0.142552 3.135265 7.125000 0.000000 0.000000 
-31.430500 18.040130 -2.336266 -57.669160 85.301653 -55.522470 -2.358739 -4.125610 -12.786425 -0.476535 8.722204 24.201555 -1.527701 8.281796 7.686668 0.009800 -0.639200 -1.756600 12.699229 8.373484 -9.321741 1.923902 -7.088670 19.698360 4.045092 -13.787580 1.041191 -0.440800 4.259900 -11.808900 3.978118 -0.456413 5.362885 1.463331 0.375227 -1.415236 3.349361 3.448301 -6.840958 -0.534500 1.313700 -1.853500 -81.548185 12.470320 23.477682 29.725504 -39.392994 -13.568204 0.652799 -1.568219 -1.563893 -7.125000 0.000000 0.000000 70.120449 -13.531302 35.456122 -36.088311 41.547527 -14.525227 0.434017 0.142247 3.105962 7.125000 0.000000 0.000000 
-31.429269 18.039925 -2.335035 -57.483946 85.289292 -55.325714 -2.351203 -4.191074 -12.759676 -0.474734 8.722269 24.194543 -1.583510 8.395159 7.655693 0.010500 -0.662200 -1.819600 12.702443 8.383050 -9.332854 1.923702 -7.091757 19.705994 4.037808 -13.768480 1.045819 -0.436600 4.239900 -11.752600 3.946614 -0.470055 5.320793 1.422855 0.368574 -1.492086 3.391765 3.445708 -6.801548 -0.523700 1.312000 -1.843900 -81.445989 12.531278 23.556546 29.817135 -39.470169 -13.638884 0.654555 -1.570591 -1.611960 -7.125000 0.000000 0.000000 70.166026 -13.613022 35.536327 -36.152401 41.593947 -14.565652 0.434639 0.142097 3.077237 7.125000 0.000000 0.000000 
-31.427936 18.039822 -2.333496 -57.262758 85.278478 -55.094408 -2.346496 -4.216045 -12.745574 -0.474370 8.720124 24.185751 -1.612827 8.454196 7.634293 0.011100 -0.678900 -1.865700 12.705221 8.396961 -9.341253 1.923778 -7.095450 19.716626 4.026311 -13.736886 1.030744 -0.424700 4.182600 -11.591100 3.915950 -0.480159 5.282240 1.388029 0.363520 -1.563519 3.431611 3.441566 -6.758791 -0.514200 1.309600 -1.832800 -81.341928 12.592431 23.639627 29.912369 -39.550106 -13.712436 0.656299 -1.573325 -1.658596 -7.125000 0.000000 0.000000 70.208940 -13.694119 35.615434 -36.212053 41.637285 -14.603181 0.435311 0.142123 3.047207 7.125000 0.000000 0.000000 
